<?xml version="1.0" encoding="utf-8"?><svg xmlns="http://www.w3.org/2000/svg" xmlns:xlink="http://www.w3.org/1999/xlink" width="1369" height="651" preserveAspectRatio="xMidYMid" viewBox="0 0 1369 651" style="z-index:1;display:block;animation-play-state:paused" ><g transform="translate(684.5,325.5) scale(1,1) translate(-684.5,-325.5)" style="animation-play-state:paused" ><linearGradient id="lg-0.29558882366607875" x1="0" x2="1" y1="0" y2="0" style="animation-play-state:paused" ><stop stop-color="#004d73" offset="0" style="animation-play-state:paused" ></stop>

  
<stop stop-color="#00334e" offset="1" style="animation-play-state:paused" ></stop></linearGradient>
<path d="M0 0L0 415.6664123535156Q136.89999389648438 357.5562438964844 273.79998779296875 335.8867492675781T547.5999755859375 307.578125T821.4000244140625 223.29534912109375T1095.199951171875 245.68218994140625T1369 169.288330078125L1369 0z" fill="url(#lg-0.29558882366607875)" opacity="0.4" style="opacity:0.4;animation-play-state:paused" ></path>
<path d="M0 0L0 407.8120422363281Q136.89999389648438 404.4717712402344 273.79998779296875 365.4783935546875T547.5999755859375 343.99212646484375T821.4000244140625 235.82469177246094T1095.199951171875 240.9523162841797T1369 202.82113647460938L1369 0z" fill="url(#lg-0.29558882366607875)" opacity="0.4" style="opacity:0.4;animation-play-state:paused" ></path>
<path d="M0 0L0 383.2812805175781Q136.89999389648438 409.2753601074219 273.79998779296875 384.596923828125T547.5999755859375 295.5814514160156T821.4000244140625 269.43658447265625T1095.199951171875 184.1308135986328T1369 173.3829345703125L1369 0z" fill="url(#lg-0.29558882366607875)" opacity="0.4" style="opacity:0.4;animation-play-state:paused" ></path>
<path d="M0 0L0 432.87554931640625Q136.89999389648438 390.7183837890625 273.79998779296875 356.3726501464844T547.5999755859375 328.13983154296875T821.4000244140625 236.09823608398438T1095.199951171875 231.9113006591797T1369 190.9748077392578L1369 0z" fill="url(#lg-0.29558882366607875)" opacity="0.4" style="opacity:0.4;animation-play-state:paused" ></path>
<path d="M0 0L0 410.10211181640625Q136.89999389648438 406.6617736816406 273.79998779296875 369.2519836425781T547.5999755859375 284.8288879394531T821.4000244140625 228.15603637695312T1095.199951171875 212.19215393066406T1369 108.27592468261719L1369 0z" fill="url(#lg-0.29558882366607875)" opacity="0.4" style="opacity:0.4;animation-play-state:paused" ></path></g></svg>